# xmcd
#
# Track frame offsets:
# 150
# 13855
# 31896
# 47482
# 63084
# 76303
# 89289
# 105296
# 117810
# 141043
#
# Disc length: 2546 seconds
#
# Revision: 1
# Processed by: cddbd v1.5.2PL0 Copyright (c) Steve Scherf et al.
# Submitted via: CedeCatalogueitor 2.6.0.6 http://personales.ya.com/cdcatalogueitor
#
DISCID=6d09f00a
DTITLE=Canned Heat - Boogie With Canned Heat
DYEAR=1968
DGENRE=Blues-Rock
TTITLE0=Evil Woman
TTITLE1=My Crime
TTITLE2=On The Road Again
TTITLE3=World In A Jug
TTITLE4=Turpentine Moan
TTITLE5=Whiskey Headed Woman Nº 2
TTITLE6=Amphetamine Annie
TTITLE7=An Owl Song
TTITLE8=Marie Laveau
TTITLE9=Fried Hookey Boogie
EXTD=
EXTT0=
EXTT1=
EXTT2=
EXTT3=
EXTT4=
EXTT5=
EXTT6=
EXTT7=
EXTT8=
EXTT9=
PLAYORDER=
